:SAMPLES-PER-SECOND 30
:FULLY-SPECIFIED
:DEGREES
430
root  -43.4988 40.3258 -5.96421 37.6652 -85.9895 -44.6617
RightUpLeg  1.76511 -8.80323 0.613687
RightLeg  17.2333 -3.96606 3.42841
RightFoot  -11.9898 -0.0951133 -2.60608
RightToes  -4.65663e-010 0 -3.6325e-017
Spine  7.01238 1.23901 11.1866
Spine1  11.7256 3.32788 -1.79434
HEad  11.193 18.7019 -11.0023
LeftShoulder1  7.74019 -10.7303 -47.4427
LeftArm  -6.59711 25.1764 -27.217
LeftForeArm  46.8241 -8.66383 -5.70459
LeftHand  -0.244104 0.0205437 5.32207
RightShoulder  4.46401 7.38927 35.0168
RightArm  10.4316 1.58187 41.8644
RightForeArm  2.48845 28.7878 6.10717
RightHand  -2.09505 5.97256 -21.4647
LeftUpLeg  -19.1254 6.68218 2.5928
LeftLeg  52.7225 3.91096 5.95138
LeftFoot  -0.574855 -0.0149451 0.175483
LeftToes  -5.82109e-011 -4.83791e-012 -1.00937e-011
431
root  -44.7803 40.3846 -5.96014 33.9013 -86.5146 -40.7768
RightUpLeg  4.66784 -8.54218 -0.0384946
RightLeg  15.5578 -3.7479 3.30916
RightFoot  -13.2826 -0.122265 -1.88756
RightToes  -4.65663e-010 0 -3.6325e-017
Spine  6.25121 2.26843 11.6159
Spine1  12.4805 4.66371 -3.31622
HEad  11.2648 17.4154 -10.9835
LeftShoulder1  7.76415 -10.8792 -47.0931
LeftArm  -5.4408 29.4842 -26.5305
LeftForeArm  44.9605 -10.4078 -5.73532
LeftHand  -0.244104 0.0205437 5.32207
RightShoulder  4.37457 7.23202 34.787
RightArm  10.6212 2.90197 42.1853
RightForeArm  4.81998 33.5907 7.20446
RightHand  -1.95884 5.56358 -20.8383
LeftUpLeg  -19.6865 8.28475 1.43844
LeftLeg  43.6353 4.70152 5.19831
LeftFoot  -1.73053 0.0116814 -0.0148364
LeftToes  -5.82109e-011 -4.83791e-012 -1.00937e-011
432
root  -46.0804 40.3358 -5.94888 27.2777 -86.0069 -33.8384
RightUpLeg  7.03426 -8.46325 -0.0923823
RightLeg  14.6164 -4.43232 2.99638
RightFoot  -14.3725 -0.144179 -1.75344
RightToes  -4.65663e-010 0 -3.6325e-017
Spine  5.14778 3.1083 12.1574
Spine1  13.0442 5.64261 -4.41513
HEad  11.8803 15.9106 -10.7898
LeftShoulder1  7.63243 -10.9936 -45.8986
LeftArm  -6.08197 33.3435 -26.9285
LeftForeArm  40.4551 -11.2787 -5.37909
LeftHand  -0.244104 0.0205437 5.32207
RightShoulder  4.3033 7.1502 34.436
RightArm  10.4105 3.47896 42.204
RightForeArm  5.55631 37.8577 8.37912
RightHand  -1.86048 5.16696 -20.5416
LeftUpLeg  -19.5725 10.5526 0.123919
LeftLeg  32.3077 4.2344 3.34628
LeftFoot  -1.64778 0.0216651 -0.153452
LeftToes  -5.82109e-011 -4.83791e-012 -1.00937e-011
433
root  -47.374 40.2387 -5.93031 19.9341 -84.6432 -26.1964
RightUpLeg  9.53392 -8.2958 0.059445
RightLeg  13.5038 -5.91063 2.85752
RightFoot  -15.4893 -0.164788 -1.66982
RightToes  -4.65663e-010 0 -3.6325e-017
Spine  4.14669 3.60903 12.0878
Spine1  13.4224 6.07458 -4.96598
HEad  12.6958 14.7835 -10.5785
LeftShoulder1  7.32437 -10.845 -44.4457
LeftArm  -8.1084 36.4352 -27.9342
LeftForeArm  36.9053 -11.769 -4.78582
LeftHand  -0.244104 0.0205437 5.32207
RightShoulder  4.29791 7.18426 34.2588
RightArm  10.2031 3.77332 41.7538
RightForeArm  6.16612 41.1458 9.39006
RightHand  -1.88358 5.25775 -20.6171
LeftUpLeg  -18.8901 14.6175 -1.80541
LeftLeg  19.7735 3.50392 1.49156
LeftFoot  -0.105943 -0.0380532 0.40684
LeftToes  -5.82109e-011 -4.83791e-012 -1.00937e-011
434
root  -48.6863 40.076 -5.89186 12.4665 -82.5544 -18.5616
RightUpLeg  12.2325 -8.34453 -0.0365907
RightLeg  12.5186 -7.66127 3.0256
RightFoot  -17.0432 -0.150138 -0.724849
RightToes  -4.65663e-010 0 -3.6325e-017
Spine  3.34227 3.69678 11.166
Spine1  13.7655 5.98967 -4.93034
HEad  13.4844 14.1431 -10.3168
LeftShoulder1  6.86519 -10.2918 -43.268
LeftArm  -10.5718 38.4978 -28.8112
LeftForeArm  35.4917 -12.1493 -4.05644
LeftHand  -0.244104 0.0205437 5.32207
RightShoulder  4.39623 7.33767 34.5922
RightArm  10.1264 4.00254 40.6974
RightForeArm  7.04201 43.0201 9.98455
RightHand  -1.92981 5.58847 -20.4965
LeftUpLeg  -17.0496 14.467 -2.19066
LeftLeg  7.22107 11.4298 -2.27267
LeftFoot  2.05034 0.0229291 -0.29113
LeftToes  -5.82109e-011 -4.83791e-012 -1.00937e-011
435
root  -50.0933 39.7762 -5.79759 9.24784 -79.8131 -15.2321
RightUpLeg  14.6156 -8.87284 0.0966143
RightLeg  12.7314 -9.44804 3.22404
RightFoot  -18.764 -0.0784203 0.751995
RightToes  -4.65663e-010 0 -3.6325e-017
Spine  2.36493 3.59807 10.5206
Spine1  13.9678 5.68649 -4.69994
HEad  14.2415 13.8282 -9.8576
LeftShoulder1  6.31447 -9.4607 -42.2819
LeftArm  -12.8405 39.5918 -29.3069
LeftForeArm  34.691 -12.3606 -3.37701
LeftHand  -0.244104 0.0205437 5.32207
RightShoulder  4.49679 7.43084 35.159
RightArm  9.96867 3.84651 39.5628
RightForeArm  7.67246 43.2997 10.0456
RightHand  -1.81121 5.26397 -19.8321
LeftUpLeg  -14.1922 3.73558 1.01728
LeftLeg  -4.3359 34.0844 -10.4616
LeftFoot  2.73749 0.116256 -1.09319
LeftToes  -5.82109e-011 -4.83791e-012 -1.00937e-011
436
root  -51.6071 39.3763 -5.64927 9.28167 -77.005 -15.1826
RightUpLeg  16.6761 -10.3681 0.403138
RightLeg  14.1344 -10.2425 3.14535
RightFoot  -20.1793 0.0349347 2.22393
RightToes  -4.65663e-010 0 -3.6325e-017
Spine  1.27047 3.70388 10.5519
Spine1  13.9843 5.6613 -4.64703
HEad  14.7984 13.5678 -9.34576
LeftShoulder1  5.80134 -8.64967 -41.37
LeftArm  -14.702 39.9908 -29.4701
LeftForeArm  33.2537 -12.6298 -2.84188
LeftHand  -0.244104 0.0205437 5.32207
RightShoulder  4.5152 7.39439 35.4595
RightArm  9.40874 2.78454 38.9309
RightForeArm  7.73731 42.2192 9.65652
RightHand  -1.60088 4.37994 -19.1396
LeftUpLeg  -13.9935 4.19712 -0.329547
LeftLeg  -8.31732 44.278 -14.2102
LeftFoot  0.850214 -0.149465 1.4067
LeftToes  -5.82109e-011 -4.83791e-012 -1.00937e-011
437
root  -53.134 39.0833 -5.51352 5.7649 -74.6149 -11.623
RightUpLeg  19.0882 -14.9913 -1.66833
RightLeg  16.0001 -6.71215 2.72982
RightFoot  -20.9731 0.265196 4.76976
RightToes  -4.65663e-010 0 -3.6325e-017
Spine  0.746302 4.08796 9.10989
Spine1  13.9714 6.05855 -4.50645
HEad  15.2095 13.0986 -8.73262
LeftShoulder1  5.47055 -8.08803 -40.8571
LeftArm  -16.0112 39.9284 -29.0607
LeftForeArm  31.6457 -13.6033 -2.49562
LeftHand  -0.244104 0.0205437 5.32207
RightShoulder  4.58244 7.46586 35.7935
RightArm  8.75842 1.01548 38.6028
RightForeArm  6.65309 39.4922 8.8221
RightHand  -1.62628 4.3908 -19.3889
LeftUpLeg  -13.4404 4.03607 -2.0679
LeftLeg  -8.78854 49.7385 -15.8664
LeftFoot  0.0428378 -1.03974 10.3203
LeftToes  -5.82109e-011 -4.83791e-012 -1.00937e-011
438
root  -54.6659 38.8937 -5.39953 -2.02291 -72.2245 -3.92279
RightUpLeg  21.1925 -23.0017 -7.26415
RightLeg  20.5099 1.76732 1.94746
RightFoot  -20.7788 0.661976 9.7618
RightToes  -4.65663e-010 0 -3.6325e-017
Spine  0.998791 4.56443 5.38907
Spine1  13.573 6.47546 -4.00426
HEad  15.8628 12.189 -7.71938
LeftShoulder1  5.36727 -7.84906 -40.9289
LeftArm  -16.56 39.3576 -27.8404
LeftForeArm  30.7556 -15.4784 -2.42328
LeftHand  -0.244104 0.0205437 5.32207
RightShoulder  4.83284 7.7872 36.7942
RightArm  9.27885 -0.454008 38.4052
RightForeArm  3.6737 33.7986 7.24935
RightHand  -1.95581 5.75617 -20.4654
LeftUpLeg  -13.7496 5.47838 -5.13939
LeftLeg  -1.91875 47.9277 -11.4366
LeftFoot  -0.453648 -1.90448 19.8533
LeftToes  -5.82109e-011 -4.83791e-012 -1.00937e-011
439
root  -56.1619 38.7778 -5.25844 -9.85997 -68.9157 3.87851
RightUpLeg  19.7247 -24.4364 -11.0779
RightLeg  29.671 3.4722 1.65512
RightFoot  -16.3957 0.550969 15.639
RightToes  -4.65663e-010 0 -3.6325e-017
Spine  1.77101 4.77836 1.34503
Spine1  12.5042 6.69615 -4.12067
HEad  16.9526 10.7807 -6.23873
LeftShoulder1  5.40149 -7.87789 -41.0989
LeftArm  -16.8629 38.0645 -26.4427
LeftForeArm  30.9749 -17.7505 -2.54833
LeftHand  -0.244104 0.0205437 5.32207
RightShoulder  5.12107 8.13119 37.9724
RightArm  9.97092 -1.03883 39.0656
RightForeArm  1.98423 24.3877 5.84077
RightHand  -2.11364 6.5471 -20.6485
LeftUpLeg  -15.5197 13.8374 -10.9796
LeftLeg  9.96951 35.9706 -1.65108
LeftFoot  -1.85776 -1.9232 22.9314
LeftToes  -5.82109e-011 -4.83791e-012 -1.00937e-011
440
root  -57.4702 38.803 -5.06733 -14.3312 -64.9347 8.65417
RightUpLeg  13.9058 -22.7081 -12.7226
RightLeg  42.1286 1.83585 1.49207
RightFoot  -4.60984 -1.07038 18.2038
RightToes  -4.65663e-010 0 -3.6325e-017
Spine  2.94043 4.67361 -0.743947
Spine1  11.1994 7.02697 -5.98742
HEad  17.9808 9.08216 -4.97854
LeftShoulder1  5.42135 -7.99326 -40.8164
LeftArm  -18.2739 36.0845 -26.089
LeftForeArm  32.5544 -20.3621 -2.77103
LeftHand  -0.244104 0.0205437 5.32207
RightShoulder  5.22796 8.3171 38.1756
RightArm  3.61384 -1.38281 40.7829
RightForeArm  10.6094 13.0658 7.00992
RightHand  -1.75372 5.39835 -18.97
LeftUpLeg  -15.8668 21.043 -16.2962
LeftLeg  14.2911 24.768 2.55715
LeftFoot  -3.09252 -1.55466 21.5238
LeftToes  -5.82109e-011 -4.83791e-012 -1.00937e-011
